<mxfile host="app.diagrams.net" modified="2023-11-01T13:12:48.607Z" agent="Mozilla/5.0 (Windows NT 10.0; Win64; x64) AppleWebKit/537.36 (KHTML, like Gecko) Chrome/118.0.0.0 Safari/537.36" etag="WSkjHzSLBo9BbDZjqnt6" version="22.0.8" type="device">
  <diagram name="Pagina-1" id="YX4Jn9ZrDIdNE98tUCER">
    <mxGraphModel dx="1215" dy="951" grid="1" gridSize="10" guides="1" tooltips="1" connect="1" arrows="1" fold="1" page="1" pageScale="1" pageWidth="1169" pageHeight="827" math="0" shadow="0">
      <root>
        <mxCell id="0" />
        <mxCell id="1" parent="0" />
        <mxCell id="QILt5XrboAvhEAF4lRoi-1" value="wielrenner" style="rounded=0;whiteSpace=wrap;html=1;" parent="1" vertex="1">
          <mxGeometry x="170" y="190" width="100" height="40" as="geometry" />
        </mxCell>
        <mxCell id="QILt5XrboAvhEAF4lRoi-2" value="landcode" style="ellipse;whiteSpace=wrap;html=1;" parent="1" vertex="1">
          <mxGeometry x="30" y="90" width="100" height="50" as="geometry" />
        </mxCell>
        <mxCell id="QILt5XrboAvhEAF4lRoi-4" value="&lt;u&gt;naam&lt;/u&gt;" style="ellipse;whiteSpace=wrap;html=1;" parent="1" vertex="1">
          <mxGeometry x="30" y="30" width="100" height="50" as="geometry" />
        </mxCell>
        <mxCell id="QILt5XrboAvhEAF4lRoi-5" value="geboortedatum" style="ellipse;whiteSpace=wrap;html=1;" parent="1" vertex="1">
          <mxGeometry x="30" y="150" width="100" height="50" as="geometry" />
        </mxCell>
        <mxCell id="QILt5XrboAvhEAF4lRoi-6" value="geboorteplaats" style="ellipse;whiteSpace=wrap;html=1;" parent="1" vertex="1">
          <mxGeometry x="30" y="210" width="100" height="50" as="geometry" />
        </mxCell>
        <mxCell id="QILt5XrboAvhEAF4lRoi-7" value="gewicht" style="ellipse;whiteSpace=wrap;html=1;" parent="1" vertex="1">
          <mxGeometry x="30" y="270" width="100" height="50" as="geometry" />
        </mxCell>
        <mxCell id="QILt5XrboAvhEAF4lRoi-8" value="lengte" style="ellipse;whiteSpace=wrap;html=1;" parent="1" vertex="1">
          <mxGeometry x="30" y="330" width="100" height="50" as="geometry" />
        </mxCell>
        <mxCell id="QILt5XrboAvhEAF4lRoi-9" value="" style="endArrow=none;html=1;rounded=0;entryX=1;entryY=0.5;entryDx=0;entryDy=0;exitX=0;exitY=0.5;exitDx=0;exitDy=0;" parent="1" source="QILt5XrboAvhEAF4lRoi-1" target="QILt5XrboAvhEAF4lRoi-4" edge="1">
          <mxGeometry width="50" height="50" relative="1" as="geometry">
            <mxPoint x="330" y="530" as="sourcePoint" />
            <mxPoint x="380" y="480" as="targetPoint" />
          </mxGeometry>
        </mxCell>
        <mxCell id="QILt5XrboAvhEAF4lRoi-10" value="" style="endArrow=none;html=1;rounded=0;entryX=1;entryY=0.5;entryDx=0;entryDy=0;exitX=0;exitY=0.5;exitDx=0;exitDy=0;" parent="1" source="QILt5XrboAvhEAF4lRoi-1" target="QILt5XrboAvhEAF4lRoi-2" edge="1">
          <mxGeometry width="50" height="50" relative="1" as="geometry">
            <mxPoint x="330" y="530" as="sourcePoint" />
            <mxPoint x="380" y="480" as="targetPoint" />
          </mxGeometry>
        </mxCell>
        <mxCell id="QILt5XrboAvhEAF4lRoi-11" value="" style="endArrow=none;html=1;rounded=0;entryX=1;entryY=0.5;entryDx=0;entryDy=0;exitX=0;exitY=0.5;exitDx=0;exitDy=0;" parent="1" source="QILt5XrboAvhEAF4lRoi-1" target="QILt5XrboAvhEAF4lRoi-5" edge="1">
          <mxGeometry width="50" height="50" relative="1" as="geometry">
            <mxPoint x="180" y="220" as="sourcePoint" />
            <mxPoint x="140" y="125" as="targetPoint" />
          </mxGeometry>
        </mxCell>
        <mxCell id="QILt5XrboAvhEAF4lRoi-12" value="" style="endArrow=none;html=1;rounded=0;entryX=0;entryY=0.5;entryDx=0;entryDy=0;exitX=1;exitY=0.5;exitDx=0;exitDy=0;" parent="1" source="QILt5XrboAvhEAF4lRoi-6" target="QILt5XrboAvhEAF4lRoi-1" edge="1">
          <mxGeometry width="50" height="50" relative="1" as="geometry">
            <mxPoint x="195" y="320" as="sourcePoint" />
            <mxPoint x="245" y="270" as="targetPoint" />
          </mxGeometry>
        </mxCell>
        <mxCell id="QILt5XrboAvhEAF4lRoi-13" value="" style="endArrow=none;html=1;rounded=0;entryX=0;entryY=0.5;entryDx=0;entryDy=0;exitX=1;exitY=0.5;exitDx=0;exitDy=0;" parent="1" source="QILt5XrboAvhEAF4lRoi-7" target="QILt5XrboAvhEAF4lRoi-1" edge="1">
          <mxGeometry width="50" height="50" relative="1" as="geometry">
            <mxPoint x="130" y="290" as="sourcePoint" />
            <mxPoint x="180" y="240" as="targetPoint" />
          </mxGeometry>
        </mxCell>
        <mxCell id="QILt5XrboAvhEAF4lRoi-14" value="" style="endArrow=none;html=1;rounded=0;exitX=1;exitY=0.5;exitDx=0;exitDy=0;" parent="1" source="QILt5XrboAvhEAF4lRoi-8" edge="1">
          <mxGeometry width="50" height="50" relative="1" as="geometry">
            <mxPoint x="140" y="350" as="sourcePoint" />
            <mxPoint x="170" y="210" as="targetPoint" />
          </mxGeometry>
        </mxCell>
        <mxCell id="QILt5XrboAvhEAF4lRoi-15" value="wielerteam" style="rounded=0;whiteSpace=wrap;html=1;" parent="1" vertex="1">
          <mxGeometry x="500" y="190" width="100" height="40" as="geometry" />
        </mxCell>
        <mxCell id="QILt5XrboAvhEAF4lRoi-16" value="lid van" style="rhombus;whiteSpace=wrap;html=1;" parent="1" vertex="1">
          <mxGeometry x="350" y="170" width="80" height="80" as="geometry" />
        </mxCell>
        <mxCell id="QILt5XrboAvhEAF4lRoi-22" value="" style="endArrow=none;html=1;rounded=0;exitX=1;exitY=0.5;exitDx=0;exitDy=0;entryX=0;entryY=0.5;entryDx=0;entryDy=0;" parent="1" source="QILt5XrboAvhEAF4lRoi-16" target="QILt5XrboAvhEAF4lRoi-15" edge="1">
          <mxGeometry width="50" height="50" relative="1" as="geometry">
            <mxPoint x="420" y="360" as="sourcePoint" />
            <mxPoint x="470" y="310" as="targetPoint" />
          </mxGeometry>
        </mxCell>
        <mxCell id="QILt5XrboAvhEAF4lRoi-23" value="1" style="text;html=1;strokeColor=none;fillColor=none;align=center;verticalAlign=middle;whiteSpace=wrap;rounded=0;" parent="1" vertex="1">
          <mxGeometry x="470" y="180" width="40" height="30" as="geometry" />
        </mxCell>
        <mxCell id="QILt5XrboAvhEAF4lRoi-25" value="N" style="text;html=1;strokeColor=none;fillColor=none;align=center;verticalAlign=middle;whiteSpace=wrap;rounded=0;" parent="1" vertex="1">
          <mxGeometry x="270" y="180" width="40" height="30" as="geometry" />
        </mxCell>
        <mxCell id="QILt5XrboAvhEAF4lRoi-28" value="naam" style="ellipse;whiteSpace=wrap;html=1;" parent="1" vertex="1">
          <mxGeometry x="620" y="100" width="100" height="50" as="geometry" />
        </mxCell>
        <mxCell id="QILt5XrboAvhEAF4lRoi-29" value="code" style="ellipse;whiteSpace=wrap;html=1;" parent="1" vertex="1">
          <mxGeometry x="620" y="220" width="100" height="50" as="geometry" />
        </mxCell>
        <mxCell id="QILt5XrboAvhEAF4lRoi-30" value="status" style="ellipse;whiteSpace=wrap;html=1;" parent="1" vertex="1">
          <mxGeometry x="620" y="280" width="100" height="50" as="geometry" />
        </mxCell>
        <mxCell id="QILt5XrboAvhEAF4lRoi-31" value="" style="endArrow=none;html=1;rounded=0;entryX=0;entryY=0.5;entryDx=0;entryDy=0;" parent="1" target="QILt5XrboAvhEAF4lRoi-28" edge="1">
          <mxGeometry width="50" height="50" relative="1" as="geometry">
            <mxPoint x="600" y="210" as="sourcePoint" />
            <mxPoint x="650" y="160" as="targetPoint" />
          </mxGeometry>
        </mxCell>
        <mxCell id="QILt5XrboAvhEAF4lRoi-32" value="" style="endArrow=none;html=1;rounded=0;entryX=0;entryY=0.5;entryDx=0;entryDy=0;exitX=1;exitY=0.5;exitDx=0;exitDy=0;" parent="1" source="QILt5XrboAvhEAF4lRoi-15" edge="1" target="OWE6HLZbdj4DXzu0odyy-3">
          <mxGeometry width="50" height="50" relative="1" as="geometry">
            <mxPoint x="600" y="270" as="sourcePoint" />
            <mxPoint x="620" y="180" as="targetPoint" />
          </mxGeometry>
        </mxCell>
        <mxCell id="QILt5XrboAvhEAF4lRoi-33" value="" style="endArrow=none;html=1;rounded=0;entryX=0;entryY=0.5;entryDx=0;entryDy=0;exitX=1;exitY=0.5;exitDx=0;exitDy=0;" parent="1" source="QILt5XrboAvhEAF4lRoi-15" edge="1" target="QILt5XrboAvhEAF4lRoi-29">
          <mxGeometry width="50" height="50" relative="1" as="geometry">
            <mxPoint x="600" y="330" as="sourcePoint" />
            <mxPoint x="620" y="240" as="targetPoint" />
          </mxGeometry>
        </mxCell>
        <mxCell id="QILt5XrboAvhEAF4lRoi-34" value="" style="endArrow=none;html=1;rounded=0;entryX=0;entryY=0.5;entryDx=0;entryDy=0;exitX=1;exitY=0.5;exitDx=0;exitDy=0;" parent="1" source="QILt5XrboAvhEAF4lRoi-15" edge="1" target="QILt5XrboAvhEAF4lRoi-30">
          <mxGeometry width="50" height="50" relative="1" as="geometry">
            <mxPoint x="600" y="390" as="sourcePoint" />
            <mxPoint x="620" y="300" as="targetPoint" />
          </mxGeometry>
        </mxCell>
        <mxCell id="QILt5XrboAvhEAF4lRoi-36" value="&lt;u&gt;naam&lt;/u&gt;" style="ellipse;whiteSpace=wrap;html=1;" parent="1" vertex="1">
          <mxGeometry x="1030" y="60" width="100" height="50" as="geometry" />
        </mxCell>
        <mxCell id="QILt5XrboAvhEAF4lRoi-37" value="wielerwedstrijd" style="rounded=0;whiteSpace=wrap;html=1;" parent="1" vertex="1">
          <mxGeometry x="890" y="90" width="100" height="40" as="geometry" />
        </mxCell>
        <mxCell id="QILt5XrboAvhEAF4lRoi-38" value="landcode" style="ellipse;whiteSpace=wrap;html=1;" parent="1" vertex="1">
          <mxGeometry x="1030" y="120" width="100" height="50" as="geometry" />
        </mxCell>
        <mxCell id="QILt5XrboAvhEAF4lRoi-39" value="" style="endArrow=none;html=1;rounded=0;exitX=1;exitY=0.5;exitDx=0;exitDy=0;" parent="1" source="QILt5XrboAvhEAF4lRoi-37" edge="1">
          <mxGeometry width="50" height="50" relative="1" as="geometry">
            <mxPoint x="980" y="135" as="sourcePoint" />
            <mxPoint x="1030" y="85" as="targetPoint" />
          </mxGeometry>
        </mxCell>
        <mxCell id="QILt5XrboAvhEAF4lRoi-40" value="" style="endArrow=none;html=1;rounded=0;exitX=1;exitY=0.5;exitDx=0;exitDy=0;entryX=0;entryY=0.5;entryDx=0;entryDy=0;" parent="1" source="QILt5XrboAvhEAF4lRoi-37" target="QILt5XrboAvhEAF4lRoi-38" edge="1">
          <mxGeometry width="50" height="50" relative="1" as="geometry">
            <mxPoint x="1000" y="120" as="sourcePoint" />
            <mxPoint x="1040" y="95" as="targetPoint" />
          </mxGeometry>
        </mxCell>
        <mxCell id="QILt5XrboAvhEAF4lRoi-41" value="" style="endArrow=none;html=1;rounded=0;entryX=0.5;entryY=1;entryDx=0;entryDy=0;shape=link;" parent="1" target="QILt5XrboAvhEAF4lRoi-37" edge="1">
          <mxGeometry width="50" height="50" relative="1" as="geometry">
            <mxPoint x="940" y="200" as="sourcePoint" />
            <mxPoint x="870" y="300" as="targetPoint" />
          </mxGeometry>
        </mxCell>
        <mxCell id="QILt5XrboAvhEAF4lRoi-42" value="d" style="ellipse;whiteSpace=wrap;html=1;aspect=fixed;" parent="1" vertex="1">
          <mxGeometry x="925" y="200" width="30" height="30" as="geometry" />
        </mxCell>
        <mxCell id="QILt5XrboAvhEAF4lRoi-43" value="" style="endArrow=none;html=1;rounded=0;exitX=0.5;exitY=0;exitDx=0;exitDy=0;entryX=0.5;entryY=1;entryDx=0;entryDy=0;" parent="1" source="QILt5XrboAvhEAF4lRoi-44" target="QILt5XrboAvhEAF4lRoi-42" edge="1">
          <mxGeometry width="50" height="50" relative="1" as="geometry">
            <mxPoint x="840" y="280" as="sourcePoint" />
            <mxPoint x="910" y="230" as="targetPoint" />
          </mxGeometry>
        </mxCell>
        <mxCell id="QILt5XrboAvhEAF4lRoi-44" value="eendagswedstrijd" style="rounded=0;whiteSpace=wrap;html=1;" parent="1" vertex="1">
          <mxGeometry x="795" y="320" width="115" height="40" as="geometry" />
        </mxCell>
        <mxCell id="QILt5XrboAvhEAF4lRoi-45" value="rittenkoers" style="rounded=0;whiteSpace=wrap;html=1;" parent="1" vertex="1">
          <mxGeometry x="1000" y="320" width="100" height="40" as="geometry" />
        </mxCell>
        <mxCell id="QILt5XrboAvhEAF4lRoi-46" value="" style="endArrow=none;html=1;rounded=0;entryX=0.5;entryY=0;entryDx=0;entryDy=0;" parent="1" target="QILt5XrboAvhEAF4lRoi-45" edge="1">
          <mxGeometry width="50" height="50" relative="1" as="geometry">
            <mxPoint x="940" y="230" as="sourcePoint" />
            <mxPoint x="990" y="180" as="targetPoint" />
          </mxGeometry>
        </mxCell>
        <mxCell id="QILt5XrboAvhEAF4lRoi-53" value="rit" style="rounded=0;whiteSpace=wrap;html=1;" parent="1" vertex="1">
          <mxGeometry x="535" y="510" width="100" height="40" as="geometry" />
        </mxCell>
        <mxCell id="QILt5XrboAvhEAF4lRoi-55" value="" style="rhombus;whiteSpace=wrap;html=1;" parent="1" vertex="1">
          <mxGeometry x="1020" y="525" width="60" height="60" as="geometry" />
        </mxCell>
        <mxCell id="QILt5XrboAvhEAF4lRoi-56" value="" style="rhombus;whiteSpace=wrap;html=1;" parent="1" vertex="1">
          <mxGeometry x="1025" y="530" width="50" height="50" as="geometry" />
        </mxCell>
        <mxCell id="QILt5XrboAvhEAF4lRoi-57" value="" style="endArrow=none;html=1;rounded=0;exitX=0.5;exitY=0;exitDx=0;exitDy=0;" parent="1" source="QILt5XrboAvhEAF4lRoi-55" edge="1">
          <mxGeometry width="50" height="50" relative="1" as="geometry">
            <mxPoint x="1000" y="410" as="sourcePoint" />
            <mxPoint x="1050" y="360" as="targetPoint" />
          </mxGeometry>
        </mxCell>
        <mxCell id="QILt5XrboAvhEAF4lRoi-60" value="" style="rhombus;whiteSpace=wrap;html=1;" parent="1" vertex="1">
          <mxGeometry x="860" y="400" width="60" height="60" as="geometry" />
        </mxCell>
        <mxCell id="QILt5XrboAvhEAF4lRoi-61" value="" style="endArrow=none;html=1;rounded=0;entryX=0.5;entryY=0;entryDx=0;entryDy=0;" parent="1" target="QILt5XrboAvhEAF4lRoi-60" edge="1">
          <mxGeometry width="50" height="50" relative="1" as="geometry">
            <mxPoint x="850" y="360" as="sourcePoint" />
            <mxPoint x="900" y="310" as="targetPoint" />
          </mxGeometry>
        </mxCell>
        <mxCell id="QILt5XrboAvhEAF4lRoi-63" value="1" style="text;html=1;strokeColor=none;fillColor=none;align=center;verticalAlign=middle;whiteSpace=wrap;rounded=0;" parent="1" vertex="1">
          <mxGeometry x="810" y="360" width="60" height="30" as="geometry" />
        </mxCell>
        <mxCell id="QILt5XrboAvhEAF4lRoi-66" value="1" style="text;html=1;strokeColor=none;fillColor=none;align=center;verticalAlign=middle;whiteSpace=wrap;rounded=0;" parent="1" vertex="1">
          <mxGeometry x="1030" y="360" width="60" height="30" as="geometry" />
        </mxCell>
        <mxCell id="QILt5XrboAvhEAF4lRoi-68" value="beschrijving" style="ellipse;whiteSpace=wrap;html=1;" parent="1" vertex="1">
          <mxGeometry x="660" y="695" width="100" height="50" as="geometry" />
        </mxCell>
        <mxCell id="QILt5XrboAvhEAF4lRoi-70" value="datum" style="ellipse;whiteSpace=wrap;html=1;" parent="1" vertex="1">
          <mxGeometry x="660" y="565" width="100" height="50" as="geometry" />
        </mxCell>
        <mxCell id="QILt5XrboAvhEAF4lRoi-74" value="" style="endArrow=none;html=1;rounded=0;entryX=0;entryY=0.5;entryDx=0;entryDy=0;exitX=1;exitY=0.5;exitDx=0;exitDy=0;" parent="1" source="QILt5XrboAvhEAF4lRoi-53" target="QILt5XrboAvhEAF4lRoi-70" edge="1">
          <mxGeometry width="50" height="50" relative="1" as="geometry">
            <mxPoint x="990" y="610" as="sourcePoint" />
            <mxPoint x="1040" y="560" as="targetPoint" />
          </mxGeometry>
        </mxCell>
        <mxCell id="QILt5XrboAvhEAF4lRoi-75" value="" style="endArrow=none;html=1;rounded=0;entryX=1;entryY=0.5;entryDx=0;entryDy=0;exitX=0;exitY=0.5;exitDx=0;exitDy=0;" parent="1" source="QILt5XrboAvhEAF4lRoi-68" target="QILt5XrboAvhEAF4lRoi-53" edge="1">
          <mxGeometry width="50" height="50" relative="1" as="geometry">
            <mxPoint x="990" y="610" as="sourcePoint" />
            <mxPoint x="1040" y="560" as="targetPoint" />
          </mxGeometry>
        </mxCell>
        <mxCell id="QILt5XrboAvhEAF4lRoi-77" value="volgt" style="rhombus;whiteSpace=wrap;html=1;direction=south;" parent="1" vertex="1">
          <mxGeometry x="422.5" y="585" width="60" height="60" as="geometry" />
        </mxCell>
        <mxCell id="QILt5XrboAvhEAF4lRoi-78" value="route" style="rounded=0;whiteSpace=wrap;html=1;" parent="1" vertex="1">
          <mxGeometry x="340" y="670" width="100" height="40" as="geometry" />
        </mxCell>
        <mxCell id="QILt5XrboAvhEAF4lRoi-79" value="" style="endArrow=none;html=1;rounded=0;entryX=0.5;entryY=1;entryDx=0;entryDy=0;exitX=0.5;exitY=0;exitDx=0;exitDy=0;" parent="1" source="QILt5XrboAvhEAF4lRoi-78" target="QILt5XrboAvhEAF4lRoi-77" edge="1">
          <mxGeometry width="50" height="50" relative="1" as="geometry">
            <mxPoint x="350" y="670" as="sourcePoint" />
            <mxPoint x="400" y="620" as="targetPoint" />
          </mxGeometry>
        </mxCell>
        <mxCell id="QILt5XrboAvhEAF4lRoi-80" value="" style="endArrow=none;html=1;rounded=0;entryX=0;entryY=0.5;entryDx=0;entryDy=0;exitX=0.5;exitY=0;exitDx=0;exitDy=0;shape=link;" parent="1" source="QILt5XrboAvhEAF4lRoi-77" target="QILt5XrboAvhEAF4lRoi-53" edge="1">
          <mxGeometry width="50" height="50" relative="1" as="geometry">
            <mxPoint x="882.5" y="620" as="sourcePoint" />
            <mxPoint x="932.5" y="570" as="targetPoint" />
          </mxGeometry>
        </mxCell>
        <mxCell id="QILt5XrboAvhEAF4lRoi-82" value="1" style="text;html=1;strokeColor=none;fillColor=none;align=center;verticalAlign=middle;whiteSpace=wrap;rounded=0;" parent="1" vertex="1">
          <mxGeometry x="360" y="645" width="40" height="30" as="geometry" />
        </mxCell>
        <mxCell id="QILt5XrboAvhEAF4lRoi-83" value="N" style="text;html=1;strokeColor=none;fillColor=none;align=center;verticalAlign=middle;whiteSpace=wrap;rounded=0;" parent="1" vertex="1">
          <mxGeometry x="520" y="480" width="40" height="30" as="geometry" />
        </mxCell>
        <mxCell id="QILt5XrboAvhEAF4lRoi-84" value="&lt;u&gt;routeID&lt;/u&gt;" style="ellipse;whiteSpace=wrap;html=1;" parent="1" vertex="1">
          <mxGeometry x="220" y="570" width="100" height="50" as="geometry" />
        </mxCell>
        <mxCell id="QILt5XrboAvhEAF4lRoi-85" value="aankomstplaats" style="ellipse;whiteSpace=wrap;html=1;" parent="1" vertex="1">
          <mxGeometry x="220" y="690" width="100" height="50" as="geometry" />
        </mxCell>
        <mxCell id="QILt5XrboAvhEAF4lRoi-86" value="afstand" style="ellipse;whiteSpace=wrap;html=1;" parent="1" vertex="1">
          <mxGeometry x="220" y="750" width="100" height="50" as="geometry" />
        </mxCell>
        <mxCell id="QILt5XrboAvhEAF4lRoi-87" value="vertrekplaats" style="ellipse;whiteSpace=wrap;html=1;" parent="1" vertex="1">
          <mxGeometry x="220" y="630" width="100" height="50" as="geometry" />
        </mxCell>
        <mxCell id="QILt5XrboAvhEAF4lRoi-88" value="hoogtemeters" style="ellipse;whiteSpace=wrap;html=1;" parent="1" vertex="1">
          <mxGeometry x="495" y="640" width="100" height="50" as="geometry" />
        </mxCell>
        <mxCell id="QILt5XrboAvhEAF4lRoi-89" value="moeilijkheidsniveau" style="ellipse;whiteSpace=wrap;html=1;" parent="1" vertex="1">
          <mxGeometry x="477.5" y="700" width="135" height="50" as="geometry" />
        </mxCell>
        <mxCell id="QILt5XrboAvhEAF4lRoi-90" value="" style="endArrow=none;html=1;rounded=0;entryX=0;entryY=0.5;entryDx=0;entryDy=0;" parent="1" target="QILt5XrboAvhEAF4lRoi-88" edge="1">
          <mxGeometry width="50" height="50" relative="1" as="geometry">
            <mxPoint x="440" y="690" as="sourcePoint" />
            <mxPoint x="490" y="645" as="targetPoint" />
          </mxGeometry>
        </mxCell>
        <mxCell id="QILt5XrboAvhEAF4lRoi-91" value="" style="endArrow=none;html=1;rounded=0;entryX=0;entryY=0.5;entryDx=0;entryDy=0;exitX=1;exitY=0.5;exitDx=0;exitDy=0;" parent="1" source="QILt5XrboAvhEAF4lRoi-78" target="QILt5XrboAvhEAF4lRoi-89" edge="1">
          <mxGeometry width="50" height="50" relative="1" as="geometry">
            <mxPoint x="427.5" y="780" as="sourcePoint" />
            <mxPoint x="477.5" y="730" as="targetPoint" />
          </mxGeometry>
        </mxCell>
        <mxCell id="QILt5XrboAvhEAF4lRoi-92" value="" style="endArrow=none;html=1;rounded=0;entryX=1;entryY=0.5;entryDx=0;entryDy=0;exitX=0;exitY=0.5;exitDx=0;exitDy=0;" parent="1" source="QILt5XrboAvhEAF4lRoi-78" target="QILt5XrboAvhEAF4lRoi-84" edge="1">
          <mxGeometry width="50" height="50" relative="1" as="geometry">
            <mxPoint x="450" y="590" as="sourcePoint" />
            <mxPoint x="500" y="540" as="targetPoint" />
          </mxGeometry>
        </mxCell>
        <mxCell id="QILt5XrboAvhEAF4lRoi-93" value="" style="endArrow=none;html=1;rounded=0;entryX=1;entryY=0.5;entryDx=0;entryDy=0;exitX=0;exitY=0.5;exitDx=0;exitDy=0;" parent="1" source="QILt5XrboAvhEAF4lRoi-78" target="QILt5XrboAvhEAF4lRoi-85" edge="1">
          <mxGeometry width="50" height="50" relative="1" as="geometry">
            <mxPoint x="340" y="745" as="sourcePoint" />
            <mxPoint x="320" y="650" as="targetPoint" />
          </mxGeometry>
        </mxCell>
        <mxCell id="QILt5XrboAvhEAF4lRoi-94" value="" style="endArrow=none;html=1;rounded=0;entryX=1;entryY=0.5;entryDx=0;entryDy=0;exitX=0;exitY=0.5;exitDx=0;exitDy=0;" parent="1" edge="1">
          <mxGeometry width="50" height="50" relative="1" as="geometry">
            <mxPoint x="340" y="690" as="sourcePoint" />
            <mxPoint x="320" y="655" as="targetPoint" />
          </mxGeometry>
        </mxCell>
        <mxCell id="QILt5XrboAvhEAF4lRoi-95" value="" style="endArrow=none;html=1;rounded=0;exitX=1;exitY=0.5;exitDx=0;exitDy=0;entryX=-0.013;entryY=0.581;entryDx=0;entryDy=0;entryPerimeter=0;" parent="1" source="QILt5XrboAvhEAF4lRoi-86" target="QILt5XrboAvhEAF4lRoi-78" edge="1">
          <mxGeometry width="50" height="50" relative="1" as="geometry">
            <mxPoint x="350" y="780" as="sourcePoint" />
            <mxPoint x="400" y="730" as="targetPoint" />
          </mxGeometry>
        </mxCell>
        <mxCell id="QILt5XrboAvhEAF4lRoi-96" value="neemt deel aan" style="rhombus;whiteSpace=wrap;html=1;" parent="1" vertex="1">
          <mxGeometry x="180" y="370" width="80" height="80" as="geometry" />
        </mxCell>
        <mxCell id="QILt5XrboAvhEAF4lRoi-97" value="status" style="ellipse;whiteSpace=wrap;html=1;" parent="1" vertex="1">
          <mxGeometry x="30" y="460" width="100" height="50" as="geometry" />
        </mxCell>
        <mxCell id="QILt5XrboAvhEAF4lRoi-98" value="positie" style="ellipse;whiteSpace=wrap;html=1;" parent="1" vertex="1">
          <mxGeometry x="30" y="580" width="100" height="50" as="geometry" />
        </mxCell>
        <mxCell id="QILt5XrboAvhEAF4lRoi-99" value="tijd" style="ellipse;whiteSpace=wrap;html=1;" parent="1" vertex="1">
          <mxGeometry x="30" y="640" width="100" height="50" as="geometry" />
        </mxCell>
        <mxCell id="QILt5XrboAvhEAF4lRoi-100" value="bonustijd" style="ellipse;whiteSpace=wrap;html=1;" parent="1" vertex="1">
          <mxGeometry x="30" y="520" width="100" height="50" as="geometry" />
        </mxCell>
        <mxCell id="QILt5XrboAvhEAF4lRoi-101" value="" style="endArrow=none;html=1;rounded=0;exitX=0.5;exitY=0;exitDx=0;exitDy=0;entryX=0.5;entryY=1;entryDx=0;entryDy=0;" parent="1" source="QILt5XrboAvhEAF4lRoi-96" target="QILt5XrboAvhEAF4lRoi-1" edge="1">
          <mxGeometry width="50" height="50" relative="1" as="geometry">
            <mxPoint x="450" y="490" as="sourcePoint" />
            <mxPoint x="500" y="440" as="targetPoint" />
          </mxGeometry>
        </mxCell>
        <mxCell id="QILt5XrboAvhEAF4lRoi-102" value="" style="endArrow=none;html=1;rounded=0;exitX=1;exitY=0.5;exitDx=0;exitDy=0;entryX=0;entryY=0;entryDx=0;entryDy=0;" parent="1" source="QILt5XrboAvhEAF4lRoi-96" target="QILt5XrboAvhEAF4lRoi-53" edge="1">
          <mxGeometry width="50" height="50" relative="1" as="geometry">
            <mxPoint x="450" y="490" as="sourcePoint" />
            <mxPoint x="770" y="500" as="targetPoint" />
          </mxGeometry>
        </mxCell>
        <mxCell id="QILt5XrboAvhEAF4lRoi-103" value="" style="endArrow=none;html=1;rounded=0;entryX=0.5;entryY=1;entryDx=0;entryDy=0;exitX=1;exitY=0.5;exitDx=0;exitDy=0;" parent="1" source="QILt5XrboAvhEAF4lRoi-97" target="QILt5XrboAvhEAF4lRoi-96" edge="1">
          <mxGeometry width="50" height="50" relative="1" as="geometry">
            <mxPoint x="200" y="475" as="sourcePoint" />
            <mxPoint x="250" y="425" as="targetPoint" />
          </mxGeometry>
        </mxCell>
        <mxCell id="QILt5XrboAvhEAF4lRoi-104" value="" style="endArrow=none;html=1;rounded=0;exitX=1;exitY=0.5;exitDx=0;exitDy=0;entryX=0.5;entryY=1;entryDx=0;entryDy=0;" parent="1" source="QILt5XrboAvhEAF4lRoi-100" target="QILt5XrboAvhEAF4lRoi-96" edge="1">
          <mxGeometry width="50" height="50" relative="1" as="geometry">
            <mxPoint x="200" y="530" as="sourcePoint" />
            <mxPoint x="250" y="480" as="targetPoint" />
          </mxGeometry>
        </mxCell>
        <mxCell id="QILt5XrboAvhEAF4lRoi-105" value="" style="endArrow=none;html=1;rounded=0;exitX=1;exitY=0.5;exitDx=0;exitDy=0;" parent="1" source="QILt5XrboAvhEAF4lRoi-98" edge="1">
          <mxGeometry width="50" height="50" relative="1" as="geometry">
            <mxPoint x="220" y="600" as="sourcePoint" />
            <mxPoint x="220" y="450" as="targetPoint" />
          </mxGeometry>
        </mxCell>
        <mxCell id="QILt5XrboAvhEAF4lRoi-106" value="" style="endArrow=none;html=1;rounded=0;exitX=1;exitY=0.5;exitDx=0;exitDy=0;" parent="1" source="QILt5XrboAvhEAF4lRoi-99" edge="1">
          <mxGeometry width="50" height="50" relative="1" as="geometry">
            <mxPoint x="210" y="650" as="sourcePoint" />
            <mxPoint x="220" y="450" as="targetPoint" />
          </mxGeometry>
        </mxCell>
        <mxCell id="QILt5XrboAvhEAF4lRoi-107" value="N" style="text;html=1;strokeColor=none;fillColor=none;align=center;verticalAlign=middle;whiteSpace=wrap;rounded=0;" parent="1" vertex="1">
          <mxGeometry x="220" y="230" width="60" height="30" as="geometry" />
        </mxCell>
        <mxCell id="oaNW010NVGeT8Q92y8tJ-1" value="" style="endArrow=none;html=1;rounded=0;exitX=1;exitY=0.5;exitDx=0;exitDy=0;shape=link;" parent="1" source="QILt5XrboAvhEAF4lRoi-53" edge="1">
          <mxGeometry width="50" height="50" relative="1" as="geometry">
            <mxPoint x="878.5" y="600" as="sourcePoint" />
            <mxPoint x="760" y="530" as="targetPoint" />
          </mxGeometry>
        </mxCell>
        <mxCell id="oaNW010NVGeT8Q92y8tJ-2" value="d" style="ellipse;whiteSpace=wrap;html=1;aspect=fixed;" parent="1" vertex="1">
          <mxGeometry x="760" y="515" width="30" height="30" as="geometry" />
        </mxCell>
        <mxCell id="oaNW010NVGeT8Q92y8tJ-3" value="" style="endArrow=none;html=1;rounded=0;entryX=0.5;entryY=1;entryDx=0;entryDy=0;exitX=0;exitY=0.5;exitDx=0;exitDy=0;" parent="1" source="oaNW010NVGeT8Q92y8tJ-10" edge="1">
          <mxGeometry width="50" height="50" relative="1" as="geometry">
            <mxPoint x="790" y="680" as="sourcePoint" />
            <mxPoint x="775" y="544.9999999999998" as="targetPoint" />
          </mxGeometry>
        </mxCell>
        <mxCell id="oaNW010NVGeT8Q92y8tJ-4" value="" style="endArrow=none;html=1;rounded=0;" parent="1" edge="1">
          <mxGeometry width="50" height="50" relative="1" as="geometry">
            <mxPoint x="790" y="530" as="sourcePoint" />
            <mxPoint x="840" y="530" as="targetPoint" />
          </mxGeometry>
        </mxCell>
        <mxCell id="oaNW010NVGeT8Q92y8tJ-6" value="" style="endArrow=none;html=1;rounded=1;strokeWidth=1;edgeStyle=orthogonalEdgeStyle;curved=1;" parent="1" edge="1">
          <mxGeometry width="50" height="50" relative="1" as="geometry">
            <mxPoint x="810" y="520" as="sourcePoint" />
            <mxPoint x="810" y="540" as="targetPoint" />
            <Array as="points">
              <mxPoint x="820" y="520" />
              <mxPoint x="820" y="540" />
            </Array>
          </mxGeometry>
        </mxCell>
        <mxCell id="oaNW010NVGeT8Q92y8tJ-9" value="eendagsrit" style="rounded=0;whiteSpace=wrap;html=1;" parent="1" vertex="1">
          <mxGeometry x="840" y="510" width="100" height="40" as="geometry" />
        </mxCell>
        <mxCell id="oaNW010NVGeT8Q92y8tJ-10" value="rit" style="rounded=0;whiteSpace=wrap;html=1;" parent="1" vertex="1">
          <mxGeometry x="840" y="660" width="100" height="40" as="geometry" />
        </mxCell>
        <mxCell id="oaNW010NVGeT8Q92y8tJ-11" value="rittenkoersrit" style="rounded=0;whiteSpace=wrap;html=1;" parent="1" vertex="1">
          <mxGeometry x="850" y="665" width="80" height="30" as="geometry" />
        </mxCell>
        <mxCell id="oaNW010NVGeT8Q92y8tJ-13" value="" style="endArrow=none;html=1;rounded=0;exitX=0.5;exitY=1;exitDx=0;exitDy=0;entryX=0.5;entryY=0;entryDx=0;entryDy=0;jumpStyle=none;shape=link;" parent="1" source="QILt5XrboAvhEAF4lRoi-60" target="oaNW010NVGeT8Q92y8tJ-9" edge="1">
          <mxGeometry width="50" height="50" relative="1" as="geometry">
            <mxPoint x="810" y="560" as="sourcePoint" />
            <mxPoint x="860" y="510" as="targetPoint" />
          </mxGeometry>
        </mxCell>
        <mxCell id="oaNW010NVGeT8Q92y8tJ-14" value="&lt;u&gt;ritID&lt;/u&gt;" style="ellipse;whiteSpace=wrap;html=1;" parent="1" vertex="1">
          <mxGeometry x="660" y="760" width="100" height="50" as="geometry" />
        </mxCell>
        <mxCell id="oaNW010NVGeT8Q92y8tJ-15" value="" style="endArrow=none;html=1;rounded=0;exitX=1;exitY=0.5;exitDx=0;exitDy=0;entryX=0;entryY=0.5;entryDx=0;entryDy=0;" parent="1" target="oaNW010NVGeT8Q92y8tJ-14" edge="1" source="QILt5XrboAvhEAF4lRoi-53">
          <mxGeometry width="50" height="50" relative="1" as="geometry">
            <mxPoint x="890" y="550" as="sourcePoint" />
            <mxPoint x="890" y="590" as="targetPoint" />
          </mxGeometry>
        </mxCell>
        <mxCell id="oaNW010NVGeT8Q92y8tJ-16" value="volgnummer" style="ellipse;whiteSpace=wrap;html=1;" parent="1" vertex="1">
          <mxGeometry x="890" y="720" width="100" height="50" as="geometry" />
        </mxCell>
        <mxCell id="oaNW010NVGeT8Q92y8tJ-17" value="" style="endArrow=none;dashed=1;html=1;rounded=0;" parent="1" edge="1">
          <mxGeometry width="50" height="50" relative="1" as="geometry">
            <mxPoint x="905" y="750" as="sourcePoint" />
            <mxPoint x="975" y="750" as="targetPoint" />
          </mxGeometry>
        </mxCell>
        <mxCell id="oaNW010NVGeT8Q92y8tJ-19" value="" style="endArrow=none;html=1;rounded=0;exitX=1;exitY=0.5;exitDx=0;exitDy=0;entryX=0;entryY=0.5;entryDx=0;entryDy=0;" parent="1" edge="1">
          <mxGeometry width="50" height="50" relative="1" as="geometry">
            <mxPoint x="889.41" y="700" as="sourcePoint" />
            <mxPoint x="889.41" y="745" as="targetPoint" />
          </mxGeometry>
        </mxCell>
        <mxCell id="oaNW010NVGeT8Q92y8tJ-21" value="" style="shape=requiredInterface;html=1;verticalLabelPosition=bottom;sketch=0;rotation=60;" parent="1" vertex="1">
          <mxGeometry x="795" y="585" width="10" height="20" as="geometry" />
        </mxCell>
        <mxCell id="oaNW010NVGeT8Q92y8tJ-22" value="" style="shape=requiredInterface;html=1;verticalLabelPosition=bottom;sketch=0;rotation=132;" parent="1" vertex="1">
          <mxGeometry x="900" y="255" width="10" height="20" as="geometry" />
        </mxCell>
        <mxCell id="oaNW010NVGeT8Q92y8tJ-24" value="" style="shape=requiredInterface;html=1;verticalLabelPosition=bottom;sketch=0;rotation=40;" parent="1" vertex="1">
          <mxGeometry x="990" y="265" width="10" height="20" as="geometry" />
        </mxCell>
        <mxCell id="oaNW010NVGeT8Q92y8tJ-30" value="" style="endArrow=none;html=1;rounded=0;exitX=1;exitY=0.5;exitDx=0;exitDy=0;shape=link;" parent="1" source="oaNW010NVGeT8Q92y8tJ-10" edge="1">
          <mxGeometry width="50" height="50" relative="1" as="geometry">
            <mxPoint x="1000" y="635" as="sourcePoint" />
            <mxPoint x="1050" y="585" as="targetPoint" />
          </mxGeometry>
        </mxCell>
        <mxCell id="oaNW010NVGeT8Q92y8tJ-31" value="N" style="text;html=1;strokeColor=none;fillColor=none;align=center;verticalAlign=middle;whiteSpace=wrap;rounded=0;" parent="1" vertex="1">
          <mxGeometry x="505" y="555" width="40" height="30" as="geometry" />
        </mxCell>
        <mxCell id="oaNW010NVGeT8Q92y8tJ-32" value="1" style="text;html=1;strokeColor=none;fillColor=none;align=center;verticalAlign=middle;whiteSpace=wrap;rounded=0;" parent="1" vertex="1">
          <mxGeometry x="880" y="480" width="60" height="30" as="geometry" />
        </mxCell>
        <mxCell id="oaNW010NVGeT8Q92y8tJ-36" value="N" style="text;html=1;strokeColor=none;fillColor=none;align=center;verticalAlign=middle;whiteSpace=wrap;rounded=0;" parent="1" vertex="1">
          <mxGeometry x="925" y="690" width="60" height="30" as="geometry" />
        </mxCell>
        <mxCell id="oaNW010NVGeT8Q92y8tJ-38" value="type" style="ellipse;whiteSpace=wrap;html=1;" parent="1" vertex="1">
          <mxGeometry x="660" y="630" width="100" height="50" as="geometry" />
        </mxCell>
        <mxCell id="oaNW010NVGeT8Q92y8tJ-39" value="" style="endArrow=none;html=1;rounded=0;entryX=0;entryY=0.5;entryDx=0;entryDy=0;exitX=1;exitY=0.5;exitDx=0;exitDy=0;" parent="1" source="QILt5XrboAvhEAF4lRoi-53" target="oaNW010NVGeT8Q92y8tJ-38" edge="1">
          <mxGeometry width="50" height="50" relative="1" as="geometry">
            <mxPoint x="630" y="530" as="sourcePoint" />
            <mxPoint x="550" y="410" as="targetPoint" />
          </mxGeometry>
        </mxCell>
        <mxCell id="oaNW010NVGeT8Q92y8tJ-41" value="" style="endArrow=none;html=1;rounded=0;entryX=0;entryY=0.5;entryDx=0;entryDy=0;exitX=1;exitY=0.5;exitDx=0;exitDy=0;shape=link;" parent="1" source="QILt5XrboAvhEAF4lRoi-1" target="QILt5XrboAvhEAF4lRoi-16" edge="1">
          <mxGeometry width="50" height="50" relative="1" as="geometry">
            <mxPoint x="270" y="270" as="sourcePoint" />
            <mxPoint x="320" y="220" as="targetPoint" />
          </mxGeometry>
        </mxCell>
        <mxCell id="OWE6HLZbdj4DXzu0odyy-3" value="&lt;u&gt;verkorte naam&lt;/u&gt;" style="ellipse;whiteSpace=wrap;html=1;" vertex="1" parent="1">
          <mxGeometry x="620" y="160" width="100" height="50" as="geometry" />
        </mxCell>
      </root>
    </mxGraphModel>
  </diagram>
</mxfile>
